<svg xmlns="http://www.w3.org/2000/svg" aria-hidden="true" style="position:absolute;width:0;height:0;overflow:hidden"><defs><symbol id="icon-antenna-1" viewBox="0 0 30 32"><path fill="#2e2f42" d="m28.243 19.642-7.505-7.56.833-4.103c.215.084.443.128.674.129h.006a1.919 1.919 0 1 0-1.785-1.276l-4.409.538L8.865.141a.474.474 0 0 0-.335-.142.475.475 0 0 0-.332.138L6.853 1.474a.474.474 0 0 0 0 .67l.723.734a13.281 13.281 0 0 0 2.24 15.7.456.456 0 0 0 .13.087 2.73 2.73 0 0 0-.046.486v5.499H4.211a2.373 2.373 0 0 0-2.37 2.37v.948c0 .262.212.474.474.474h21.807a.474.474 0 0 0 .474-.474v-.948a2.373 2.373 0 0 0-2.37-2.37h-5.689v-2.437c.891.187 1.799.282 2.71.284a13.2 13.2 0 0 0 6.258-1.585l.727.732c.088.09.209.141.335.142a.475.475 0 0 0 .332-.138l1.345-1.337a.474.474 0 0 0 0-.67zM21.582 5.54a.948.948 0 1 1 .668 1.621h-.003a.947.947 0 0 1-.663-1.62h-.002zm-1.116 3.116-.532 2.618-1.045-1.051 1.577-1.567zm-.538-.802-1.707 1.697-1.32-1.327 3.027-.369zM22.226 25.6c.785 0 1.422.637 1.422 1.422v.474H2.789v-.474c0-.785.637-1.422 1.422-1.422h18.015zm-6.637-1.896v.948h-4.741v-.948h4.741zm-4.741-.948v-3.603c0-1.15 1.063-2.086 2.37-2.086s2.37.936 2.37 2.086v3.603h-4.741zm5.689-1.508v-2.095c0-1.673-1.489-3.034-3.319-3.034a3.378 3.378 0 0 0-2.917 1.588A12.328 12.328 0 0 1 8.276 3.585l16.535 16.63a12.28 12.28 0 0 1-8.274 1.034zm10.035-.608L7.855 1.813l.671-.668 7.053 7.093c.003 0 .005.006.009.009l11.657 11.726-.673.668z" style="fill:var(--color1, #2e2f42)"/><path fill="#4d5ae5" d="M13.223 18.015h-.004a1.422 1.422 0 0 0-.004 2.844h.004a1.422 1.422 0 0 0 .004-2.844zm.332 1.758a.474.474 0 1 1-.336-.811.475.475 0 0 1 .332.811h.004z" style="fill:var(--color2, #4d5ae5)"/></symbol><symbol id="icon-astronaut-1" viewBox="0 0 32 32"><path fill="#4d5ae5" d="M30.199 4.688a.475.475 0 0 0-.383-.322l-1.698-.247-.76-1.539c-.159-.324-.691-.324-.85 0l-.76 1.539-1.698.247a.475.475 0 0 0-.263.808l1.229 1.198-.29 1.691a.473.473 0 0 0 .688.5l1.519-.799 1.519.799a.47.47 0 0 0 .5-.036.473.473 0 0 0 .188-.464l-.29-1.691 1.229-1.198a.476.476 0 0 0 .12-.486zm-2.189 1.18a.475.475 0 0 0-.136.42l.17.99-.889-.467a.467.467 0 0 0-.442 0l-.889.467.17-.99a.475.475 0 0 0-.136-.42l-.72-.702.995-.145a.471.471 0 0 0 .357-.259l.445-.901.445.901c.069.14.202.237.357.259l.995.145-.719.702zM25.008 18.909h-.948v.948h.948v-.948zM25.008 20.805h-.948v.948h.948v-.948zM25.956 19.857h-.948v.948h.948v-.948zM24.059 19.857h-.948v.948h.948v-.948zM21.689 24.124h-.948v.948h.948v-.948zM21.689 26.02h-.948v.948h.948v-.948zM22.637 25.072h-.948v.948h.948v-.948zM20.741 25.072h-.948v.948h.948v-.948zM16 22.227h-.948v.948H16v-.948zM16 24.124h-.948v.948H16v-.948zM16.948 23.175H16v.948h.948v-.948zM15.052 23.175h-.948v.948h.948v-.948zM6.992 6.108h-.948v.948h.948v-.948zM6.992 8.005h-.948v.948h.948v-.948zM7.941 7.057h-.948v.948h.948v-.948zM6.044 7.057h-.948v.948h.948v-.948z" style="fill:var(--color2, #4d5ae5)"/><path fill="#2e2f42" d="M23.746 13.253a1.578 1.578 0 0 0-1.056-.626 1.578 1.578 0 0 0-1.191.313l-1.113.853-1.687 1.26-1.207-.481c2.152-.966 3.657-3.118 3.657-5.618 0-3.398-2.776-6.163-6.188-6.163S8.773 5.556 8.773 8.954c0 1.232.368 2.377.996 3.341l-2.457-.021h-.004c-.008 0-.014.004-.021.004a.47.47 0 0 0-.138.027c-.011.004-.023.007-.034.012l-.017.006-2.874 1.419h-.001l-1.683.809a.453.453 0 0 0-.056.031 1.583 1.583 0 0 0 .886 2.903c.257 0 .513-.063.746-.188l1.234-.656 2.013-1.039 1.206-.007-4.837 4.814-.001.001-1.19 1.185c-.281.28-.436.651-.436 1.047s.155.767.436 1.048c.289.287.668.431 1.048.431s.759-.144 1.049-.431l1.168-1.163 1.547-1.155.801.797-1.566 1.559-.001.001-1.19 1.185c-.281.28-.436.651-.436 1.047s.155.767.436 1.048c.289.287.669.431 1.049.431s.76-.144 1.049-.431l3.095-3.081.001-.001.897-.889-.003-.003c.006-.006.014-.008.019-.014l4.592-5.029 3.085.439a.473.473 0 0 0 .233-.029c.016-.006.029-.013.044-.021.017-.009.035-.013.051-.024l2.856-1.896c.01-.007.016-.019.026-.026.011-.009.026-.013.036-.023l1.13-1.059a1.58 1.58 0 0 0 .188-2.099zM3.671 16.462a.635.635 0 0 1-.496.046.634.634 0 0 1-.188-1.12l1.168-.562.399 1.167-.882.469zm3.109-1.624-1.376.711-.39-1.141 1.802-.889-.035 1.319zm13.422-5.885c0 .816-.195 1.586-.532 2.275L15.953 9.54a1.653 1.653 0 0 0-.701-1.234l1.301-4.32c2.113.672 3.648 2.644 3.648 4.967zm-10.479 0c0-2.875 2.351-5.215 5.24-5.215.225 0 .445.019.662.046L14.352 8.01c-.017-.001-.033-.005-.051-.005-.918 0-1.665.744-1.665 1.659s.747 1.659 1.665 1.659a1.66 1.66 0 0 0 1.438-.84l3.433 1.56a5.235 5.235 0 0 1-4.21 2.124c-2.889 0-5.239-2.34-5.239-5.215zm5.294.711c0 .392-.321.711-.716.711s-.716-.319-.716-.711c0-.392.321-.711.716-.711s.716.319.716.711zM3.969 23.019a.54.54 0 0 1-.759 0 .527.527 0 0 1 0-.751l.855-.852.757.753-.852.849zm2.856 3.318a.54.54 0 0 1-.76 0 .527.527 0 0 1 0-.751l.856-.852.757.753-.853.849zm3.095-3.083-.001.001-1.569 1.564-.757-.753 1.567-1.56.001-.001c.036-.036.058-.078.08-.12.006-.012.018-.023.023-.036.015-.037.017-.076.023-.114.003-.022.012-.042.012-.064 0-.032-.011-.063-.018-.094-.006-.028-.006-.057-.017-.085a.463.463 0 0 0-.081-.122c-.009-.01-.012-.024-.022-.034H9.16l-.001-.002-1.428-1.422c-.015-.015-.035-.021-.052-.034a.49.49 0 0 0-.077-.051.48.48 0 0 0-.083-.029.473.473 0 0 0-.091-.018c-.029-.002-.056.001-.085.004-.032.004-.062.008-.092.018s-.056.024-.084.04c-.018.01-.037.013-.054.026l-1.576 1.177-.801-.797 2.132-2.121 3.876 3.812-.825.817zm6.062-6.237c-.014-.002-.027.003-.04.002a.494.494 0 0 0-.18.025.427.427 0 0 0-.086.042.395.395 0 0 0-.074.055c-.011.01-.025.015-.036.026l-4.176 4.574-3.847-3.784 2.518-2.505a.475.475 0 0 0-.338-.81l-1.972.012.025-1.429 2.759.024a6.178 6.178 0 0 0 4.428 1.867c.389 0 .768-.04 1.137-.109.036.028.071.057.115.075l2.142.853.136.674.158.787-2.669-.38zm3.592.158-.278-1.385 1.286-.96.841 1.117-1.849 1.228zm3.336-2.516-.745.698-.828-1.099.739-.566a.654.654 0 0 1 .483-.127.635.635 0 0 1 .351 1.095z" style="fill:var(--color1, #2e2f42)"/><path fill="#2e2f42" d="m13.869 17.15-1.905-1.896a.474.474 0 0 0-.669 0L9.391 17.15a.477.477 0 0 0 0 .672l1.904 1.896a.473.473 0 0 0 .669 0l1.905-1.896a.476.476 0 0 0 0-.672zm-2.24 1.564-1.233-1.227 1.233-1.227 1.233 1.227-1.233 1.227zM17.035 5.174l-.229.921c.063.016 1.545.402 1.545 1.91h.948c0-1.793-1.481-2.636-2.264-2.831zM19.299 8.953h-.948v.948h.948v-.948z" style="fill:var(--color1, #2e2f42)"/></symbol><symbol id="icon-clock-1" viewBox="0 0 31 32"><path fill="#2e2f42" d="M29.153 13.601C29.151 6.088 23.059-.002 15.546 0S1.943 6.094 1.945 13.607a13.604 13.604 0 0 0 9.466 12.957.601.601 0 0 0 .47-.058.567.567 0 0 0 .252-.317L15.569 15.3a1.7 1.7 0 1 0-.746-3.231L10.284 7.53a.567.567 0 0 0-.801.802l4.536 4.541a1.669 1.669 0 0 0 .477 2.053l-3.273 10.376c-6.469-2.383-9.782-9.559-7.399-16.028s9.559-9.782 16.028-7.399c6.469 2.383 9.782 9.559 7.399 16.028a12.476 12.476 0 0 1-6.633 7.087l-.354-1.666a.567.567 0 0 0-.932-.305l-3.411 3.045a.566.566 0 0 0 .206.963l4.354 1.39a.567.567 0 0 0 .728-.657l-.348-1.635a13.56 13.56 0 0 0 8.292-12.524zm-13.604-.567a.567.567 0 1 1 0 1.134.567.567 0 0 1 0-1.134zm1.867 13.213 1.941-1.732.536 2.525-2.477-.793z" style="fill:var(--color1, #2e2f42)"/><path fill="#4d5ae5" d="M14.982 2.831v1.134a.567.567 0 0 0 1.134 0V2.831a.567.567 0 0 0-1.134 0zM4.779 13.034a.567.567 0 0 0 0 1.134h1.134a.567.567 0 0 0 0-1.134H4.779zM26.318 14.168a.567.567 0 0 0 0-1.134h-1.134a.567.567 0 0 0 0 1.134h1.134z" style="fill:var(--color2, #4d5ae5)"/></symbol><symbol id="icon-diagram-1" viewBox="0 0 32 32"><path fill="#4d5ae5" d="M15.045 14.857h.948v4.264h-.948v-4.264zM18.835 16.753h.948v2.369h-.948v-2.369zM11.254 18.174h.948v.948h-.948v-.948zM8.411 17.7h.948v1.421h-.948V17.7z" style="fill:var(--color2, #4d5ae5)"/><path fill="#2e2f42" d="M3.199 26.703h22.744c.785 0 1.422-.636 1.422-1.421v-1.895c0-.785-.637-1.421-1.422-1.421h-.474V10.15L28.16 7.6a1.43 1.43 0 1 0-.663-.678l-2.028 1.922V7.751a1.42 1.42 0 0 0-1.421-1.421H5.095a1.42 1.42 0 0 0-1.421 1.421v14.215H3.2a1.42 1.42 0 0 0-1.421 1.421v1.895A1.42 1.42 0 0 0 3.2 26.703zM28.786 5.855a.474.474 0 1 1 0 .947.474.474 0 0 1 0-.947zM4.621 7.75c0-.262.212-.474.474-.474h18.953c.262 0 .474.212.474.474v1.99l-.948.9V8.697a.474.474 0 0 0-.474-.474H6.042a.474.474 0 0 0-.474.474v11.846c0 .262.212.474.474.474H23.1a.474.474 0 0 0 .474-.474v-8.599l.948-.898v10.919H4.621V7.75zm4.264 6.16a1.422 1.422 0 1 0 .984 2.443l1.647.826a.474.474 0 0 0 .566-.109l3.501-3.939 3.442 2.579a.474.474 0 0 0 .61-.035l2.991-2.833v7.228H6.516V9.172h16.11v2.365l-3.352 3.175-3.471-2.602a.473.473 0 0 0-.638.064l-3.549 3.993-1.327-.664c.01-.057.016-.114.018-.172a1.42 1.42 0 0 0-1.421-1.421zm.474 1.421a.474.474 0 1 1-.947 0 .474.474 0 0 1 .947 0zm2.843 7.582h4.738v.474a.474.474 0 0 1-.474.474h-3.791a.474.474 0 0 1-.474-.474v-.474zm-9.477.473c0-.262.212-.474.474-.474h8.055v.474a1.42 1.42 0 0 0 1.421 1.421h3.791a1.42 1.42 0 0 0 1.421-1.421v-.474h8.055c.262 0 .474.212.474.474v1.895a.474.474 0 0 1-.474.474H3.198a.474.474 0 0 1-.474-.474v-1.895z" style="fill:var(--color1, #2e2f42)"/></symbol><symbol id="icon-facebook-1" viewBox="0 0 32 32"><path fill="#f4f4fd" d="M18.886 3.542h1.948V.15C20.498.104 19.342 0 17.997 0c-2.808 0-4.732 1.766-4.732 5.012V8h-3.099v3.792h3.099v9.541h3.799v-9.54h2.973l.472-3.792h-3.446V5.389c.001-1.096.296-1.846 1.823-1.846z" style="fill:var(--color3, #f4f4fd)"/></symbol><symbol id="icon-instagram-2" viewBox="0 0 32 32"><path fill="#f4f4fd" d="M26.646 6.272c-.05-1.134-.233-1.913-.496-2.588a5.211 5.211 0 0 0-1.234-1.892A5.23 5.23 0 0 0 23.028.563C22.349.3 21.574.117 20.44.067 19.298.013 18.935 0 16.039 0s-3.259.013-4.397.063c-1.134.05-1.913.233-2.588.496a5.203 5.203 0 0 0-1.892 1.234 5.23 5.23 0 0 0-1.229 1.888c-.263.679-.446 1.454-.496 2.588-.054 1.142-.067 1.505-.067 4.401s.013 3.259.063 4.397c.05 1.134.233 1.913.496 2.588a5.265 5.265 0 0 0 1.233 1.892 5.23 5.23 0 0 0 1.888 1.229c.679.263 1.454.446 2.588.496 1.138.05 1.5.063 4.397.063s3.259-.012 4.397-.063c1.133-.05 1.913-.233 2.588-.496a5.459 5.459 0 0 0 3.122-3.121c.262-.679.446-1.455.496-2.588.05-1.138.063-1.5.063-4.397s-.004-3.259-.054-4.397zm-1.921 8.71c-.046 1.042-.221 1.605-.367 1.98a3.54 3.54 0 0 1-2.025 2.025c-.375.146-.942.321-1.98.367-1.125.05-1.463.063-4.309.063s-3.188-.012-4.309-.063c-1.042-.046-1.604-.221-1.98-.367a3.284 3.284 0 0 1-1.225-.796 3.324 3.324 0 0 1-.796-1.225c-.146-.375-.321-.942-.367-1.979-.05-1.125-.063-1.463-.063-4.309s.012-3.188.063-4.309c.046-1.042.221-1.604.367-1.98.171-.463.442-.883.8-1.225a3.316 3.316 0 0 1 1.225-.796c.375-.146.942-.321 1.98-.367 1.125-.05 1.463-.063 4.309-.063 2.851 0 3.188.013 4.309.063 1.042.046 1.605.221 1.98.367.462.171.883.442 1.225.796.354.346.625.763.796 1.225.146.375.321.942.367 1.98.05 1.125.063 1.463.063 4.309s-.013 3.18-.063 4.305z" style="fill:var(--color3, #f4f4fd)"/><path fill="#f4f4fd" d="M16.04 5.188c-3.026 0-5.48 2.455-5.48 5.48s2.455 5.48 5.48 5.48c3.026 0 5.48-2.455 5.48-5.48s-2.455-5.48-5.48-5.48zm0 9.035a3.555 3.555 0 1 1 .001-7.111 3.555 3.555 0 0 1-.001 7.111zM23.016 4.972a1.279 1.279 0 1 1-2.558 0 1.279 1.279 0 0 1 2.558 0z" style="fill:var(--color3, #f4f4fd)"/></symbol><symbol id="icon-linkedin-1" viewBox="0 0 32 32"><path fill="#f4f4fd" d="M26.661 21.333v-.001h.005v-7.824c0-3.828-.824-6.776-5.299-6.776-2.151 0-3.595 1.18-4.184 2.3h-.062V7.09h-4.243v14.243h4.418v-7.052c0-1.857.352-3.652 2.651-3.652 2.266 0 2.3 2.119 2.3 3.772v6.934h4.413zM5.685 7.091h4.423v14.243H5.685V7.091zM7.895 0C6.481 0 5.333 1.148 5.333 2.562s1.148 2.586 2.562 2.586 2.562-1.172 2.562-2.586S9.309 0 7.895 0z" style="fill:var(--color3, #f4f4fd)"/></symbol><symbol id="icon-twitter-1" viewBox="0 0 32 32"><path fill="#f4f4fd" d="M26.667 4.719a9.119 9.119 0 0 1-2.52.691 4.345 4.345 0 0 0 1.924-2.417 8.75 8.75 0 0 1-2.773 1.059 4.373 4.373 0 0 0-7.566 2.991c0 .347.029.68.101.997-3.636-.177-6.853-1.92-9.015-4.575a4.408 4.408 0 0 0-.599 2.211 4.38 4.38 0 0 0 1.943 3.635 4.306 4.306 0 0 1-1.976-.539v.048a4.393 4.393 0 0 0 3.504 4.297 4.38 4.38 0 0 1-1.147.144c-.28 0-.563-.016-.828-.075.567 1.732 2.175 3.005 4.087 3.047a8.787 8.787 0 0 1-5.423 1.865c-.359 0-.703-.016-1.047-.06a12.314 12.314 0 0 0 6.709 1.963c8.048 0 12.448-6.667 12.448-12.445 0-.193-.007-.38-.016-.565a8.721 8.721 0 0 0 2.192-2.271z" style="fill:var(--color3, #f4f4fd)"/></symbol></defs></svg>